<svg width="20" height="20" viewBox="0 0 20 20" fill="none" xmlns="http://www.w3.org/2000/svg">
<path fill-rule="evenodd" clip-rule="evenodd" d="M19.5076 19.4524C19.4531 19.4524 19.3952 19.4443 19.3359 19.4286L13.1069 16.7485L6.92138 19.5L0.664138 16.7975C0.298621 16.6982 0 16.3093 0 15.9361V1.02079C0 0.707366 0.208965 0.499322 0.492414 0.500002C0.546897 0.500002 0.604828 0.5068 0.664138 0.524477L6.9131 3.20933L13.1083 0.523118L19.3359 3.35007C19.7007 3.45137 20 3.84026 20 4.21352V18.9316C20 19.245 19.7903 19.4524 19.5076 19.4524ZM6.2069 4.30123L1.37931 2.32345V15.5825L6.2069 17.7636V4.30123ZM7.58621 17.7792L12.4138 15.6893V2.22962L7.58621 4.30191V17.7792ZM18.6207 4.56502L13.7931 2.25614V15.6757L18.6207 17.6915V4.56502Z" fill="#919191"/>
</svg>
