<svg width="79" height="18" viewBox="0 0 79 18" fill="none" xmlns="http://www.w3.org/2000/svg">
<path d="M15.7103 4.49875C14.7441 2.951 13.3055 1.75525 11.6072 1.08827C9.90886 0.421292 8.041 0.3185 6.27976 0.795091C4.51852 1.27168 2.95737 2.30236 1.82715 3.73474C0.696918 5.16711 0.0575981 6.92516 0.00370825 8.74895C-0.0501816 10.5727 0.484219 12.3655 1.5279 13.8621C2.57158 15.3587 4.06914 16.4797 5.79917 17.0595C7.5292 17.6393 9.39987 17.6469 11.1346 17.0814C12.8693 16.5159 14.376 15.4071 15.432 13.9191L14.018 12.9157C13.1775 14.1002 11.9781 14.9828 10.5972 15.433C9.21632 15.8831 7.72723 15.877 6.35008 15.4155C4.97294 14.954 3.78085 14.0617 2.95006 12.8703C2.11926 11.679 1.69387 10.2519 1.73677 8.80016C1.77966 7.34838 2.28858 5.94894 3.18826 4.80873C4.08795 3.66853 5.33065 2.84809 6.73264 2.46871C8.13463 2.08934 9.62148 2.17116 10.9734 2.70209C12.3253 3.23302 13.4704 4.18487 14.2396 5.41691L15.7103 4.49875Z" fill="#F69333"/>
<path d="M5.64645 9.14645C5.45119 9.34171 5.45119 9.65829 5.64645 9.85355L8.82843 13.0355C9.02369 13.2308 9.34027 13.2308 9.53554 13.0355C9.7308 12.8403 9.7308 12.5237 9.53554 12.3284L6.70711 9.5L9.53554 6.67157C9.7308 6.47631 9.7308 6.15973 9.53554 5.96447C9.34027 5.7692 9.02369 5.7692 8.82843 5.96447L5.64645 9.14645ZM79 9L6 9V10L79 10V9Z" fill="white"/>
</svg>
