<svg width="79" height="18" viewBox="0 0 79 18" fill="none" xmlns="http://www.w3.org/2000/svg">
<path d="M63.2897 13.5012C64.2559 15.049 65.6945 16.2448 67.3928 16.9117C69.0911 17.5787 70.959 17.6815 72.7202 17.2049C74.4815 16.7283 76.0426 15.6976 77.1729 14.2653C78.3031 12.8329 78.9424 11.0748 78.9963 9.25105C79.0502 7.42726 78.5158 5.63453 77.4721 4.13792C76.4284 2.64131 74.9309 1.52025 73.2008 0.9405C71.4708 0.360748 69.6001 0.353072 67.8654 0.918609C66.1307 1.48414 64.624 2.59287 63.568 4.08087L64.982 5.08427C65.8225 3.89979 67.0219 3.01722 68.4028 2.56704C69.7837 2.11686 71.2728 2.12297 72.6499 2.58446C74.0271 3.04596 75.2192 3.93834 76.0499 5.12968C76.8807 6.32101 77.3061 7.74806 77.2632 9.19984C77.2203 10.6516 76.7114 12.0511 75.8117 13.1913C74.9121 14.3315 73.6693 15.1519 72.2674 15.5313C70.8654 15.9107 69.3785 15.8288 68.0266 15.2979C66.6747 14.767 65.5296 13.8151 64.7604 12.5831L63.2897 13.5012Z" fill="#F69333"/>
<path d="M73.3536 9.85356C73.5488 9.6583 73.5488 9.34172 73.3536 9.14645L70.1716 5.96447C69.9763 5.76921 69.6597 5.76921 69.4645 5.96447C69.2692 6.15973 69.2692 6.47632 69.4645 6.67158L72.2929 9.50001L69.4645 12.3284C69.2692 12.5237 69.2692 12.8403 69.4645 13.0355C69.6597 13.2308 69.9763 13.2308 70.1716 13.0355L73.3536 9.85356ZM-4.37114e-08 10L73 10L73 9.00001L4.37114e-08 9L-4.37114e-08 10Z" fill="white"/>
</svg>
