<svg width="30" height="30" viewBox="0 0 30 30" fill="none" xmlns="http://www.w3.org/2000/svg">
<g clip-path="url(#clip0_201_672)">
<path d="M15 0C12.0333 0 9.13319 0.879735 6.66645 2.52796C4.19972 4.17618 2.27713 6.51886 1.14181 9.25975C0.00649922 12.0006 -0.290551 15.0166 0.288227 17.9264C0.867006 20.8361 2.29562 23.5088 4.3934 25.6066C6.49119 27.7044 9.16394 29.133 12.0737 29.7118C14.9834 30.2906 17.9994 29.9935 20.7403 28.8582C23.4811 27.7229 25.8238 25.8003 27.472 23.3336C29.1203 20.8668 30 17.9667 30 15C29.9957 11.0231 28.4139 7.2103 25.6018 4.39819C22.7897 1.58609 18.9769 0.00434263 15 0V0ZM15 28.5938C12.3114 28.5938 9.6832 27.7965 7.44772 26.3028C5.21224 24.8091 3.4699 22.686 2.44102 20.2021C1.41214 17.7182 1.14294 14.9849 1.66746 12.348C2.19197 9.71106 3.48665 7.28889 5.38777 5.38777C7.28889 3.48665 9.71107 2.19197 12.348 1.66745C14.9849 1.14293 17.7182 1.41213 20.2021 2.44101C22.686 3.46989 24.8091 5.21224 26.3028 7.44772C27.7965 9.6832 28.5938 12.3114 28.5938 15C28.5894 18.604 27.1558 22.0591 24.6074 24.6074C22.0591 27.1558 18.604 28.5894 15 28.5938Z" fill="white"/>
<path d="M21.5907 8.38828C21.4588 8.25661 21.2801 8.18265 21.0938 8.18265C20.9075 8.18265 20.7288 8.25661 20.5969 8.38828L15 14.0039L9.40552 8.37891C9.27343 8.24681 9.09427 8.17261 8.90747 8.17261C8.72067 8.17261 8.54151 8.24681 8.40942 8.37891C8.27733 8.511 8.20313 8.69015 8.20313 8.87695C8.20312 9.06376 8.27733 9.24291 8.40942 9.375L14.0063 15L8.40942 20.625C8.27764 20.7571 8.20373 20.9361 8.20395 21.1227C8.20417 21.3093 8.2785 21.4881 8.41059 21.6199C8.54268 21.7517 8.72171 21.8256 8.9083 21.8254C9.09488 21.8252 9.27374 21.7508 9.40552 21.6187L15 15.9961L20.5969 21.6211C20.729 21.7532 20.9082 21.8274 21.095 21.8274C21.2818 21.8274 21.4609 21.7532 21.593 21.6211C21.7251 21.489 21.7993 21.3098 21.7993 21.123C21.7993 20.9362 21.7251 20.7571 21.593 20.625L15.9938 15L21.593 9.375C21.7222 9.24315 21.7944 9.06577 21.794 8.88116C21.7936 8.69655 21.7205 8.51951 21.5907 8.38828Z" fill="white"/>
</g>
<defs>
<clipPath id="clip0_201_672">
<rect width="30" height="30" fill="white"/>
</clipPath>
</defs>
</svg>
