<svg width="12" height="20" viewBox="0 0 12 20" fill="none" xmlns="http://www.w3.org/2000/svg">
<path d="M5.99902 0C2.69053 0 -0.000976562 2.62054 -0.000976562 5.92411C-0.000976562 6.65625 0.155506 7.45536 0.437176 8.17411H0.432704L0.45953 8.22768C0.481885 8.27679 0.50424 8.32589 0.526594 8.375L5.99902 20L11.4446 8.43304L11.4715 8.37946C11.4938 8.33036 11.5206 8.28125 11.543 8.22768L11.5609 8.17857C11.8515 7.45982 11.999 6.70089 11.999 5.93304C11.999 2.62054 9.30752 0 5.99902 0ZM5.99902 7.80804C4.84105 7.80804 3.90215 6.87054 3.90215 5.71429C3.90215 4.55804 4.84105 3.62054 5.99902 3.62054C7.157 3.62054 8.09589 4.55804 8.09589 5.71429C8.09589 6.87054 7.157 7.80804 5.99902 7.80804Z" fill="#909090"/>
</svg>
