<svg width="22" height="22" viewBox="0 0 22 22" fill="none" xmlns="http://www.w3.org/2000/svg">
<path d="M13.0864 15.1009C13.0864 15.1009 14.706 14.1737 15.13 13.9509C15.5528 13.7273 15.9908 13.6709 16.2568 13.8333C16.6596 14.0797 20.042 16.3297 20.3268 16.5289C20.6116 16.7285 20.7488 17.2985 20.3572 17.8569C19.9672 18.4153 18.168 20.6233 17.4056 20.5997C16.642 20.5749 13.4672 20.5053 7.48041 14.5169C1.49481 8.53045 1.42401 5.35485 1.39961 4.59125C1.37521 3.82805 3.58321 2.02845 4.14161 1.63805C4.70081 1.24805 5.27161 1.39485 5.47001 1.66925C5.69561 1.98165 7.91962 5.35325 8.16442 5.73965C8.33202 6.00365 8.27041 6.44405 8.04681 6.86725C7.82441 7.29125 6.89721 8.91085 6.89721 8.91085C6.89721 8.91085 7.55081 10.0257 9.76121 12.2357C11.972 14.4461 13.0864 15.1009 13.0864 15.1009Z" stroke="#909090" stroke-width="1.5" stroke-miterlimit="10"/>
</svg>
