<svg width="20" height="31" viewBox="0 0 20 31" fill="none" xmlns="http://www.w3.org/2000/svg">
<path d="M16.7386 19.5495C16.7893 19.5804 16.8456 19.6011 16.9043 19.6105C16.963 19.6198 17.023 19.6176 17.0808 19.604C17.1387 19.5903 17.1933 19.5655 17.2415 19.5309C17.2896 19.4963 17.3305 19.4527 17.3617 19.4024C17.3928 19.3522 17.4137 19.2964 17.4232 19.2381C17.4326 19.1799 17.4303 19.1203 17.4166 19.063C17.4028 19.0056 17.3778 18.9514 17.3429 18.9036C17.3081 18.8558 17.2641 18.8153 17.2134 18.7844L16.8222 18.5454C16.516 18.3593 16.2702 18.0898 16.1139 17.7691C16.3499 17.3392 16.4733 16.8573 16.4727 16.3677V2.31677C16.4727 1.03931 15.4251 0 14.1373 0H2.33479C1.04736 0 0 1.03931 0 2.31677V10.6486C0 10.7678 0.0477088 10.882 0.132631 10.9663C0.217553 11.0505 0.332732 11.0978 0.452829 11.0978C0.572927 11.0978 0.688106 11.0505 0.773028 10.9663C0.85795 10.882 0.905659 10.7678 0.905659 10.6486V2.31677C0.905659 1.53471 1.54674 0.898436 2.33479 0.898436H14.1373C14.9257 0.898436 15.5671 1.53471 15.5671 2.31677V15.7066L14.1451 9.86512C14.0121 9.3187 13.6354 8.8814 13.1116 8.66535C12.5868 8.44895 12.0073 8.49255 11.5217 8.7852C10.5774 9.35421 10.0349 10.3863 10.1059 11.4787L10.4642 16.989C10.4979 17.506 10.3374 18.0058 10.0114 18.407H2.33479C1.54674 18.407 0.905659 17.7708 0.905659 16.9887V12.4454C0.905659 12.3262 0.85795 12.212 0.773028 12.1277C0.688106 12.0435 0.572927 11.9962 0.452829 11.9962C0.332732 11.9962 0.217553 12.0435 0.132631 12.1277C0.0477088 12.212 0 12.3262 0 12.4454V16.9887C0 18.2662 1.04736 19.3055 2.33479 19.3055H3.6588C3.49802 19.5784 3.41198 19.8899 3.41198 20.2147C3.41198 21.1892 4.19338 21.9855 5.16721 22.0207C5.00594 22.2941 4.9196 22.6061 4.9196 22.9316C4.9196 23.9283 5.73705 24.7392 6.74178 24.7392H7.73843C7.86839 25.5063 8.13193 26.2452 8.51724 26.9226L8.53155 26.9479C8.7834 27.3913 8.91584 27.8916 8.91609 28.4005V30.2174C8.91609 30.3365 8.9638 30.4508 9.04872 30.535C9.13364 30.6193 9.24882 30.6666 9.36892 30.6666C9.48902 30.6666 9.6042 30.6193 9.68912 30.535C9.77404 30.4508 9.82175 30.3365 9.82175 30.2174V28.4006C9.82139 27.737 9.64872 27.0847 9.32038 26.5065L9.30607 26.4813C8.07878 24.3231 8.3643 21.6234 10.0166 19.7635L10.6309 19.072C11.1575 18.4793 11.4193 17.719 11.368 16.9311L11.0097 11.4209C10.9605 10.6635 11.3367 9.94778 11.9918 9.55307C12.2276 9.41099 12.509 9.38973 12.7639 9.49491C13.0178 9.59967 13.2003 9.81146 13.2648 10.076L15.0965 17.6011C15.2709 18.3172 15.7151 18.9242 16.3474 19.3105L16.7386 19.5495ZM7.64847 23.8409H6.74172C6.23631 23.8409 5.8252 23.433 5.8252 22.9317C5.8252 22.6886 5.92047 22.4602 6.09309 22.289C6.17812 22.2043 6.27921 22.1371 6.39054 22.0914C6.50186 22.0456 6.62122 22.0222 6.74172 22.0225H7.8386C7.69241 22.6172 7.62844 23.229 7.64847 23.8409ZM8.12744 21.124H5.2341C4.72875 21.124 4.31758 20.7161 4.31758 20.2148C4.31758 19.9717 4.41291 19.7434 4.58644 19.5717C4.6713 19.4871 4.77223 19.42 4.8834 19.3743C4.99458 19.3286 5.11377 19.3053 5.2341 19.3056H9.22099C8.76174 19.8505 8.39263 20.4643 8.12744 21.124ZM19.0473 16.0663L18.2484 14.9682C18.2135 14.9204 18.1694 14.8799 18.1187 14.8491C18.0681 14.8182 18.0118 14.7975 17.953 14.7882C17.8943 14.7789 17.8343 14.7812 17.7765 14.795C17.7186 14.8087 17.6641 14.8336 17.616 14.8682C17.5678 14.9028 17.527 14.9465 17.4959 14.9968C17.4648 15.0471 17.4439 15.1029 17.4346 15.1612C17.4252 15.2194 17.4275 15.279 17.4414 15.3363C17.4552 15.3937 17.4803 15.4478 17.5152 15.4956L18.3141 16.5937C18.7067 17.1302 18.9608 17.7541 19.0542 18.4106C19.1475 19.0671 19.0773 19.7363 18.8497 20.3596C18.7957 20.5075 16.3237 27.1918 16.3302 27.3425V30.2174C16.3302 30.3366 16.3779 30.4508 16.4629 30.5351C16.5478 30.6193 16.663 30.6667 16.7831 30.6667C16.9032 30.6667 17.0183 30.6193 17.1033 30.5351C17.1882 30.4508 17.2359 30.3366 17.2359 30.2174V27.4213L19.7013 20.6654C19.9793 19.9041 20.065 19.0869 19.951 18.2851C19.837 17.4834 19.5267 16.7216 19.0473 16.0663ZM8.23612 12.8537C7.45037 12.8537 6.8111 13.4879 6.8111 14.2673C6.8111 15.0468 7.45037 15.681 8.23612 15.681C9.02187 15.681 9.66114 15.0468 9.66114 14.2673C9.66114 13.4879 9.02187 12.8537 8.23612 12.8537ZM8.23612 14.7826C7.94975 14.7826 7.71676 14.5514 7.71676 14.2673C7.71676 13.9833 7.94975 13.7521 8.23612 13.7521C8.52249 13.7521 8.75549 13.9833 8.75549 14.2673C8.75549 14.5514 8.52249 14.7826 8.23612 14.7826ZM8.23612 3.62453C7.27135 3.62453 6.49895 4.47086 6.59803 5.41835L7.1576 11.027C7.21273 11.5796 7.67642 11.9963 8.23612 11.9963C8.79582 11.9963 9.25951 11.5796 9.31464 11.027L9.87422 5.41835C9.97384 4.47038 9.18857 3.62453 8.23612 3.62453ZM8.97297 5.32988L8.41339 10.9386C8.40433 11.0294 8.32808 11.0979 8.23606 11.0979C8.14405 11.0979 8.06785 11.0294 8.05873 10.9386L7.49916 5.32988C7.45393 4.90366 7.80473 4.52296 8.236 4.52296C8.66552 4.52296 9.01843 4.90414 8.97297 5.32988Z" fill="white"/>
</svg>
