<svg width="60" height="60" viewBox="0 0 60 60" fill="none" xmlns="http://www.w3.org/2000/svg">
<path d="M51.3 22.9009C53.0064 21.2297 54 18.9468 54 16.5C54 11.5376 49.9629 7.5 45 7.5C43.3603 7.5 41.7471 7.9507 40.333 8.80371C40.106 8.94083 39.9427 9.16247 39.8789 9.41993C39.8152 9.67739 39.8563 9.94961 39.9932 10.1768C40.2783 10.65 40.8935 10.8008 41.3662 10.5166C42.4688 9.8516 43.7246 9.50004 45 9.50004C48.8593 9.50004 52 12.6402 52 16.5C52 18.8769 50.8096 21.0679 48.8115 22.3637C47.1338 23.4643 45.0068 23.7817 43.0644 23.2284C42.5391 23.077 41.9804 23.3837 41.8281 23.9149C41.7554 24.17 41.787 24.4436 41.9159 24.6754C42.0448 24.9073 42.2605 25.0784 42.5156 25.1512C43.3235 25.3825 44.1597 25.4999 45 25.4999C46.5724 25.4999 48.0923 25.071 49.4418 24.2964C54.5753 26.1565 58 31.0032 58 36.4999V41.5H48.8814C48.1731 34.8207 43.971 28.9759 37.8417 26.2005C39.7922 24.2147 40.9999 21.4969 40.9999 18.5C41 12.4345 36.0654 7.5 30 7.5C23.9346 7.5 19 12.4345 19 18.5C19 21.4978 20.2084 24.2164 22.1599 26.2025C20.0972 27.1397 18.1841 28.4508 16.5615 30.0641C13.451 33.1835 11.5582 37.1872 11.1089 41.5002H2.00004V36.5002C2.00004 33.0373 3.35262 29.7722 5.80477 27.3097C7.15465 25.9684 8.79809 24.9451 10.5676 24.302C11.9173 25.0734 13.4326 25.5 15 25.5C15.8399 25.5 16.6758 25.3828 17.4844 25.1514C17.7394 25.0785 17.9551 24.9073 18.084 24.6755C18.2129 24.4437 18.2446 24.1702 18.1719 23.915C18.0196 23.3838 17.4609 23.0776 16.9356 23.2286C14.9941 23.7827 12.8682 23.4659 11.1837 22.3614C9.19055 21.0679 8.00004 18.877 8.00004 16.5C8.00004 12.6402 11.1407 9.50004 15 9.50004C16.2754 9.50004 17.5312 9.8516 18.6337 10.5166C18.861 10.6531 19.1331 10.694 19.3905 10.6303C19.6478 10.5666 19.8695 10.4035 20.0068 10.1768C20.292 9.70371 20.1396 9.08941 19.667 8.80371C18.2529 7.9507 16.6397 7.5 15 7.5C10.0371 7.5 6 11.5376 6 16.5C6 18.9449 6.99199 21.2261 8.69344 22.8957C7.09659 23.6391 5.64075 24.6537 4.39066 25.8946C1.55953 28.7382 6.18497e-08 32.5044 6.18497e-08 36.5V42.5C-4.61349e-05 42.6314 0.0257871 42.7614 0.0760235 42.8828C0.12626 43.0041 0.199915 43.1144 0.292779 43.2072C0.385643 43.3001 0.495896 43.3737 0.617238 43.424C0.73858 43.4742 0.868631 43.5 0.999961 43.5H10.9999V51.5C10.9999 51.6314 11.0257 51.7614 11.0759 51.8828C11.1262 52.0041 11.1998 52.1144 11.2927 52.2072C11.3856 52.3001 11.4958 52.3737 11.6172 52.424C11.7385 52.4742 11.8686 52.5 11.9999 52.5H47.9999C48.1312 52.5 48.2613 52.4742 48.3826 52.424C48.5039 52.3737 48.6142 52.3001 48.7071 52.2072C48.7999 52.1144 48.8736 52.0041 48.9238 51.8828C48.9741 51.7614 48.9999 51.6314 48.9998 51.5V43.5H58.9998C59.1311 43.5 59.2612 43.4742 59.3825 43.424C59.5039 43.3737 59.6141 43.3001 59.707 43.2072C59.7999 43.1144 59.8735 43.0041 59.9237 42.8828C59.974 42.7614 59.9998 42.6314 59.9998 42.5V36.5C60 30.5873 56.5638 25.3275 51.3 22.9009ZM21 18.5C21 13.5376 25.0371 9.50004 30 9.50004C34.9629 9.50004 39 13.5376 39 18.5C39 23.4625 34.9629 27.5 30 27.5C25.0371 27.5 21 23.4623 21 18.5ZM47 50.5H13V43.5C13 38.9658 14.7675 34.6958 17.9746 31.479C19.6641 29.7986 21.7123 28.4951 23.9082 27.6518C25.6537 28.8175 27.7481 29.5 30 29.5C32.2556 29.5 34.3536 28.8155 36.1008 27.6463C42.6373 30.1577 47 36.4594 47 43.5V50.5Z" fill="#919191"/>
</svg>
