<svg width="60" height="60" viewBox="0 0 60 60" fill="none" xmlns="http://www.w3.org/2000/svg">
<path fill-rule="evenodd" clip-rule="evenodd" d="M58.2888 28.2698H49.721L53.1395 21.9292C53.5919 21.091 53.287 20.0398 52.457 19.5822C51.6269 19.1267 50.5865 19.4343 50.1341 20.2725L45.8207 28.2698H32.9828L39.4637 17.0716L48.474 17.3457C48.4917 17.3477 48.5075 17.3477 48.5252 17.3477C49.4476 17.3477 50.2088 16.6062 50.2364 15.6694C50.2639 14.7148 49.5224 13.918 48.5763 13.8885L41.4326 13.6696L45.7577 6.19685C46.2357 5.37247 45.9603 4.31142 45.1441 3.82823C44.3298 3.34898 43.2795 3.62509 42.8015 4.44948L38.4783 11.9222L34.7884 5.73733C34.3006 4.91886 33.2483 4.65656 32.438 5.14961C31.6276 5.64266 31.368 6.70568 31.8558 7.52415L36.5094 15.3242L30.0108 26.554L23.583 15.2828L28.2859 7.51429C28.7795 6.69779 28.5258 5.6328 27.7194 5.13581C26.913 4.63684 25.8587 4.89125 25.365 5.70775L21.6358 11.8689L17.3598 4.36664C16.8858 3.53832 15.8394 3.25432 15.0211 3.73159C14.2029 4.20887 13.9197 5.26794 14.3917 6.0943L18.6697 13.5946L11.526 13.7662C10.5819 13.7899 9.83249 14.5827 9.85609 15.5372C9.87773 16.4799 10.6409 17.2274 11.5653 17.2274C11.5791 17.2274 11.5948 17.2274 11.6086 17.2254L20.6169 17.0105L27.0369 28.2698H14.1773L9.86592 20.2725C9.41354 19.4343 8.37109 19.1247 7.54303 19.5822C6.713 20.0398 6.40616 21.091 6.85855 21.9292L10.279 28.2698H1.71119C0.767087 28.2698 0 29.0449 0 29.9994C0 30.956 0.767087 31.7291 1.71119 31.7291H10.279L6.85855 38.0697C6.40616 38.9099 6.713 39.9611 7.54303 40.4166C7.80266 40.5606 8.08392 40.6296 8.36125 40.6296C8.96705 40.6296 9.55515 40.3023 9.86592 39.7264L14.1773 31.7291H27.0152L20.5343 42.9273L11.5279 42.6531C10.5504 42.6216 9.79315 43.375 9.76365 44.3295C9.73611 45.286 10.4796 46.0828 11.4237 46.1124L18.5655 46.3293L14.2403 53.802C13.7643 54.6264 14.0377 55.6875 14.8559 56.1687C15.1254 56.3304 15.4244 56.4073 15.7174 56.4073C16.3055 56.4073 16.8779 56.0996 17.1965 55.5494L21.5217 48.0767L25.2116 54.2596C25.5322 54.8 26.0987 55.0978 26.6789 55.0978C26.9798 55.0978 27.2847 55.0169 27.562 54.8493C28.3704 54.3542 28.6301 53.2912 28.1423 52.4728L23.4906 44.6746L29.9892 33.4449L36.417 44.7161L31.7141 52.4846C31.2205 53.3011 31.4742 54.3661 32.2806 54.8631C32.5599 55.0366 32.8687 55.1195 33.1736 55.1195C33.7479 55.1195 34.3124 54.8236 34.635 54.2911L38.3622 48.1299L42.6402 55.6322C42.9569 56.1884 43.5332 56.5 44.1252 56.5C44.4163 56.5 44.7094 56.4251 44.9789 56.2673C45.799 55.79 46.0803 54.7329 45.6083 53.9046L41.3303 46.4043L48.474 46.2327C49.4181 46.209 50.1675 45.4162 50.1439 44.4616C50.1223 43.5051 49.3572 42.7616 48.3914 42.7715L39.3831 42.9884L32.9631 31.7291H45.8207L50.1341 39.7264C50.4448 40.3023 51.031 40.6296 51.6387 40.6296C51.9161 40.6296 52.1973 40.5606 52.457 40.4166C53.287 39.9611 53.5919 38.9099 53.1395 38.0697L49.721 31.7291H58.2888C59.2329 31.7291 60 30.956 60 29.9994C60 29.0449 59.2329 28.2698 58.2888 28.2698Z" fill="#919191"/>
</svg>
