<svg width="61" height="60" viewBox="0 0 61 60" fill="none" xmlns="http://www.w3.org/2000/svg">
<g clip-path="url(#clip0_122_189)">
<path d="M15.4414 3.69141H10.7539C5.10008 3.69141 0.5 8.29148 0.5 13.9453V52.6172C0.5 55.0406 2.47109 57.0117 4.89453 57.0117H21.3008C23.7242 57.0117 25.6953 55.0406 25.6953 52.6172V13.9453C25.6953 8.29148 21.0952 3.69141 15.4414 3.69141ZM9.79297 5.50512C9.2668 9.39059 6.1993 12.4581 2.31383 12.9844C2.7568 9.06586 5.87469 5.94809 9.7932 5.505L9.79297 5.50512ZM2.25781 28.4766C2.25781 26.8744 2.6075 25.3523 3.23422 23.9827L5.54504 27.2708C5.31044 27.6722 5.18703 28.1288 5.1875 28.5938V41.4844C5.1875 41.8854 5.27809 42.2658 5.43887 42.6063L2.7568 46.4236C2.43203 45.9755 2.25737 45.4362 2.25781 44.8828V28.4766ZM7.82422 44.1211H18.3711C18.773 44.1211 19.1539 44.0305 19.4949 43.8689L21.9948 47.4261C21.7686 47.4881 21.5352 47.5195 21.3008 47.5195H4.89453C4.66007 47.5195 4.42667 47.4881 4.20055 47.4261L6.70039 43.8689C7.05163 44.0354 7.43553 44.1215 7.82422 44.1211ZM6.94531 41.4844V28.5938C6.94531 28.1089 7.33941 27.7148 7.82422 27.7148H18.3711C18.8559 27.7148 19.25 28.1089 19.25 28.5938V41.4844C19.25 41.9692 18.8559 42.3633 18.3711 42.3633H7.82422C7.33941 42.3633 6.94531 41.9692 6.94531 41.4844ZM19.305 26.1281C19.0067 26.0148 18.6902 25.9568 18.3711 25.957H7.82422C7.49551 25.957 7.18109 26.018 6.89035 26.1281L4.19785 22.2963C6.15746 19.482 9.41586 17.6367 13.0977 17.6367C16.7795 17.6367 20.0379 19.482 21.9975 22.2963L19.305 26.1281ZM23.9375 52.6172C23.9375 54.071 22.7546 55.2539 21.3008 55.2539H4.89453C3.4407 55.2539 2.25781 54.071 2.25781 52.6172V48.3961C3.01741 48.9689 3.94315 49.2783 4.89453 49.2773H21.3008C22.2896 49.2773 23.2024 48.9492 23.9375 48.3961V52.6172ZM23.9375 44.8828C23.9375 45.4577 23.7521 45.9896 23.4385 46.4232L20.7564 42.6064C20.9222 42.2556 21.008 41.8724 21.0078 41.4844V28.5938C21.0078 28.1118 20.8774 27.6599 20.6504 27.2707L22.9611 23.9827C23.5878 25.3523 23.9375 26.8744 23.9375 28.4766V44.8828ZM23.9375 22.0652C21.7407 18.365 17.7042 15.8789 13.0977 15.8789C8.49113 15.8789 4.45461 18.365 2.25781 22.0652V14.7606C7.16094 14.2359 11.0445 10.3523 11.5695 5.44922H14.9768C15.2264 7.76508 16.2342 9.9307 17.8685 11.6203C19.5032 13.3109 21.6341 14.3906 23.9375 14.7166V22.0652ZM16.7625 5.55258C20.491 6.13711 23.4207 9.15562 23.8743 12.9253C20.198 12.2606 17.2972 9.25313 16.7625 5.55258ZM50.2461 3.69141H45.5586C39.9048 3.69141 35.3047 8.29148 35.3047 13.9453V52.6172C35.3047 55.0406 37.2758 57.0117 39.6992 57.0117H56.1055C58.5289 57.0117 60.5 55.0406 60.5 52.6172V13.9453C60.5 8.29148 55.8999 3.69141 50.2461 3.69141ZM58.6789 12.9254C55.0027 12.2607 52.1019 9.25324 51.5672 5.5527C55.2957 6.13723 58.2254 9.15574 58.679 12.9254H58.6789ZM44.5977 5.50512C44.0714 9.39059 41.0039 12.4581 37.1184 12.9845C37.5614 9.06598 40.6793 5.9482 44.5978 5.50512H44.5977ZM37.0625 28.4766C37.0625 26.8744 37.4122 25.3523 38.0389 23.9827L40.3497 27.2708C40.1151 27.6722 39.9917 28.1288 39.9922 28.5938V41.4844C39.9922 41.8854 40.0828 42.2658 40.2436 42.6063L37.5615 46.4236C37.2367 45.9755 37.0621 45.4362 37.0625 44.8828V28.4766ZM42.6289 44.1211H53.1758C53.5777 44.1211 53.9586 44.0305 54.2996 43.8689L56.7995 47.4261C56.5733 47.4881 56.3399 47.5195 56.1055 47.5195H39.6992C39.4648 47.5195 39.2314 47.4881 39.0052 47.4261L41.5051 43.8689C41.8563 44.0354 42.2402 44.1215 42.6289 44.1211ZM41.75 41.4844V28.5938C41.75 28.1089 42.1441 27.7148 42.6289 27.7148H53.1758C53.6606 27.7148 54.0547 28.1089 54.0547 28.5938V41.4844C54.0547 41.9692 53.6606 42.3633 53.1758 42.3633H42.6289C42.1441 42.3633 41.75 41.9692 41.75 41.4844ZM54.1096 26.1281C53.8113 26.0148 53.4949 25.9568 53.1758 25.957H42.6289C42.3002 25.957 41.9858 26.018 41.695 26.1281L39.0025 22.2963C40.9621 19.482 44.2205 17.6367 47.9023 17.6367C51.5841 17.6367 54.8425 19.482 56.8022 22.2963L54.1096 26.1281ZM58.7422 52.6172C58.7422 54.071 57.5593 55.2539 56.1055 55.2539H39.6992C38.2454 55.2539 37.0625 54.071 37.0625 52.6172V48.3961C37.8221 48.9689 38.7478 49.2783 39.6992 49.2773H56.1055C57.0943 49.2773 58.0071 48.9492 58.7422 48.3961V52.6172ZM58.7422 44.8828C58.7422 45.4577 58.5568 45.9896 58.2432 46.4232L55.5611 42.6064C55.7269 42.2556 55.8127 41.8724 55.8125 41.4844V28.5938C55.8125 28.1118 55.6821 27.6599 55.4551 27.2707L57.7658 23.9827C58.3925 25.3523 58.7422 26.8744 58.7422 28.4766V44.8828ZM58.7422 22.0652C56.5454 18.365 52.5089 15.8789 47.9023 15.8789C43.2958 15.8789 39.2593 18.365 37.0625 22.0652V14.7606C41.9656 14.2359 45.8492 10.3523 46.3742 5.44922H49.7814C50.0311 7.76508 51.0389 9.9307 52.6732 11.6203C54.3079 13.3109 56.4388 14.3906 58.7422 14.7166V22.0652ZM29.6797 58.2422H31.4375V60H29.6797V58.2422ZM29.6797 3.51562H31.4375V56.4844H29.6797V3.51562ZM29.6797 0H31.4375V1.75781H29.6797V0Z" fill="#919191"/>
<path d="M3.95703 51.7383H5.71484V53.4961H3.95703V51.7383ZM20.4805 51.7383H22.2383V53.4961H20.4805V51.7383ZM38.9961 51.7383H40.7539V53.4961H38.9961V51.7383ZM55.5195 51.7383H57.2773V53.4961H55.5195V51.7383Z" fill="#919191"/>
</g>
<defs>
<clipPath id="clip0_122_189">
<rect width="60" height="60" fill="white" transform="translate(0.5)"/>
</clipPath>
</defs>
</svg>
