<svg width="60" height="60" viewBox="0 0 60 60" fill="none" xmlns="http://www.w3.org/2000/svg">
<path d="M25.4167 20.6435C24.752 21.114 24.1824 21.7063 23.738 22.389C23.6855 22.4695 23.6494 22.5596 23.6317 22.6541C23.614 22.7486 23.615 22.8456 23.6348 22.9397C23.6546 23.0338 23.6927 23.1231 23.747 23.2024C23.8012 23.2818 23.8706 23.3496 23.9511 23.4022C24.0316 23.4547 24.1216 23.4909 24.216 23.5086C24.3105 23.5263 24.4075 23.5252 24.5015 23.5054C24.5956 23.4856 24.6848 23.4475 24.7641 23.3932C24.8434 23.3389 24.9113 23.2695 24.9638 23.189C25.3076 22.6604 25.7484 22.2018 26.2629 21.8375C26.4198 21.7247 26.5258 21.5544 26.5576 21.3637C26.5894 21.173 26.5446 20.9774 26.4328 20.8197C26.3211 20.662 26.1515 20.5549 25.9612 20.5218C25.7708 20.4887 25.5751 20.5323 25.4167 20.643V20.6435Z" fill="#919191"/>
<path d="M12.1646 52.0355H6.80122V18.4998C6.80122 18.4876 6.80293 18.4764 6.80293 18.4644C6.80293 12.6747 11.2673 7.96436 16.7548 7.96436C22.03 7.96436 26.3576 12.3184 26.6843 17.799C25.1165 17.9854 23.6713 18.7402 22.622 19.9205C21.5727 21.1008 20.9921 22.6249 20.9899 24.2045V25.3483C20.9899 25.5425 21.067 25.7287 21.2042 25.866C21.3414 26.0032 21.5275 26.0804 21.7216 26.0804H24.9777C25.3011 27.2517 26.347 28.1168 27.5718 28.1168C28.7967 28.1168 29.8424 27.2522 30.1657 26.0804H33.1546C33.3487 26.0804 33.5348 26.0032 33.672 25.866C33.8093 25.7287 33.8863 25.5425 33.8863 25.3483V24.2045C33.8843 22.6178 33.2985 21.0873 32.2409 19.9049C31.1832 18.7226 29.7276 17.971 28.1516 17.7936C27.8185 11.5073 22.8345 6.5 16.7549 6.5C10.4815 6.5 5.37439 11.8318 5.34024 18.3985C5.33903 18.4155 5.33768 18.4324 5.33768 18.4496V52.0353H0.731707C0.537647 52.0353 0.351534 52.1124 0.214312 52.2497C0.0770904 52.387 0 52.5732 0 52.7673C0 52.9615 0.0770904 53.1477 0.214312 53.285C0.351534 53.4223 0.537647 53.4994 0.731707 53.4994H12.1646C12.3587 53.4994 12.5448 53.4223 12.682 53.285C12.8193 53.1477 12.8963 52.9615 12.8963 52.7673C12.8963 52.5732 12.8193 52.387 12.682 52.2497C12.5448 52.1124 12.3587 52.0353 12.1646 52.0353V52.0355ZM27.5717 26.653C27.3689 26.6497 27.1702 26.5956 26.9937 26.4956C26.8172 26.3956 26.6687 26.2529 26.5616 26.0806H28.5817C28.4746 26.2529 28.3261 26.3956 28.1496 26.4956C27.9732 26.5956 27.7745 26.6497 27.5717 26.653ZM32.4228 24.2045V24.6163H22.4533V24.2045C22.4533 22.8818 22.9785 21.6133 23.9133 20.678C24.8481 19.7428 26.116 19.2173 27.4381 19.2173C28.7601 19.2173 30.028 19.7428 30.9628 20.678C31.8976 21.6133 32.4228 22.8818 32.4228 24.2045Z" fill="#919191"/>
<path d="M56.5445 40.7247V35.8809C56.5372 35.0639 56.2064 34.2832 55.6245 33.71C55.0427 33.1368 54.2573 32.8179 53.4407 32.8233H40.0512C39.6436 32.8213 39.2396 32.9003 38.8627 33.0559C38.4859 33.2115 38.1437 33.4405 37.8561 33.7296C37.7959 33.7906 37.7392 33.8533 37.6846 33.918C37.3914 33.574 37.0268 33.298 36.6164 33.109C36.2059 32.92 35.7592 32.8225 35.3073 32.8233H21.8417C21.0251 32.8179 20.2398 33.1368 19.6579 33.71C19.076 34.2832 18.7451 35.0639 18.7378 35.8809V40.7386C17.862 40.8161 17.0463 41.2171 16.4499 41.8635C15.8535 42.5099 15.5191 43.3553 15.5117 44.235V52.768C15.5117 52.9622 15.5888 53.1484 15.726 53.2856C15.8633 53.4229 16.0494 53.5001 16.2434 53.5001H21.9165C22.1105 53.5001 22.2966 53.4229 22.4339 53.2856C22.5711 53.1484 22.6482 52.9622 22.6482 52.768V51.7928L52.8639 51.8021V52.768C52.8639 52.9622 52.941 53.1484 53.0782 53.2856C53.2155 53.4229 53.4016 53.5001 53.5956 53.5001H59.2686C59.4626 53.5001 59.6487 53.4229 59.7859 53.2856C59.9232 53.1484 60.0003 52.9622 60.0003 52.768V44.2346C59.992 43.3154 59.6268 42.4353 58.982 41.7803C58.3372 41.1254 57.4631 40.7468 56.5445 40.7247ZM38.8927 34.7625C39.0446 34.6104 39.2253 34.4899 39.4242 34.4082C39.6231 34.3265 39.8362 34.2852 40.0512 34.2867H53.4407C53.8693 34.281 54.2826 34.4455 54.5901 34.7442C54.8977 35.0429 55.0742 35.4514 55.0811 35.8801V40.9837C54.4299 41.2428 53.8709 41.6907 53.4758 42.2699C53.0808 42.849 52.8677 43.5331 52.8639 44.2343V44.521L38.4149 44.5173L38.4167 35.9538C38.4132 35.7336 38.4534 35.5149 38.5351 35.3104C38.6168 35.1058 38.7384 34.9196 38.8927 34.7625ZM21.8417 34.2867H35.3071C35.7358 34.281 36.1492 34.4456 36.4567 34.7444C36.7643 35.0433 36.9407 35.452 36.9475 35.8809L36.9507 44.517L22.6482 44.5131V44.2348C22.6436 43.4919 22.4045 42.7695 21.9651 42.1707C21.5256 41.5719 20.9083 41.1274 20.2012 40.9006V35.8809C20.2081 35.4521 20.3846 35.0434 20.6921 34.7447C20.9997 34.4459 21.4131 34.2813 21.8417 34.2871V34.2867ZM21.1848 52.0352H16.9751V44.2346C16.9902 43.6861 17.2185 43.1652 17.6116 42.7825C18.0047 42.3999 18.5315 42.1858 19.08 42.1858C19.6284 42.1858 20.1552 42.3999 20.5483 42.7825C20.9414 43.1652 21.1697 43.6861 21.1848 44.2346V52.0352ZM22.6482 50.3279V45.9771L37.6821 45.9812H37.6832L52.8638 45.9855V50.3376L22.6482 50.3279ZM58.5368 52.0356H54.3273V44.2346C54.3418 43.6858 54.5699 43.1642 54.963 42.7811C55.3562 42.398 55.8833 42.1837 56.4321 42.1837C56.9809 42.1837 57.508 42.398 57.9011 42.7811C58.2943 43.1642 58.5224 43.6858 58.5368 44.2346V52.0356Z" fill="#919191"/>
</svg>
