<svg width="61" height="60" viewBox="0 0 61 60" fill="none" xmlns="http://www.w3.org/2000/svg">
<path d="M59.5323 40.6452H58.5645V32.9033C58.5632 31.877 58.1549 30.8932 57.4292 30.1676C56.7036 29.4419 55.7198 29.0336 54.6935 29.0323V12.5807C54.6922 11.5545 54.2839 10.5706 53.5583 9.84498C52.8326 9.11933 51.8488 8.71106 50.8226 8.70972H10.1774C9.15119 8.71106 8.16737 9.11933 7.44172 9.84498C6.71606 10.5706 6.3078 11.5545 6.30645 12.5807V29.0323C5.28022 29.0336 4.2964 29.4419 3.57075 30.1676C2.84509 30.8932 2.43683 31.877 2.43548 32.9033V40.6452H1.46774C1.21108 40.6452 0.964932 40.7472 0.783445 40.9286C0.601958 41.1101 0.5 41.3563 0.5 41.6129V45.4839C0.5 45.7406 0.601958 45.9867 0.783445 46.1682C0.964932 46.3497 1.21108 46.4517 1.46774 46.4517H2.43548V50.3226C2.43548 50.5793 2.53744 50.8254 2.71893 51.0069C2.90042 51.1884 3.14656 51.2904 3.40323 51.2904H6.30645C6.53012 51.2905 6.74689 51.213 6.91983 51.0712C7.09277 50.9293 7.21117 50.7319 7.25484 50.5125L8.06774 46.4517H52.9323L53.7452 50.5125C53.7888 50.7319 53.9072 50.9293 54.0802 51.0712C54.2531 51.213 54.4699 51.2905 54.6935 51.2904H57.5968C57.8534 51.2904 58.0996 51.1884 58.2811 51.0069C58.4626 50.8254 58.5645 50.5793 58.5645 50.3226V46.4517H59.5323C59.7889 46.4517 60.0351 46.3497 60.2166 46.1682C60.398 45.9867 60.5 45.7406 60.5 45.4839V41.6129C60.5 41.3563 60.398 41.1101 60.2166 40.9286C60.0351 40.7472 59.7889 40.6452 59.5323 40.6452ZM8.24194 12.5807C8.24261 12.0676 8.44674 11.5757 8.80957 11.2128C9.1724 10.85 9.6643 10.6459 10.1774 10.6452H50.8226C51.3357 10.6459 51.8276 10.85 52.1904 11.2128C52.5533 11.5757 52.7574 12.0676 52.7581 12.5807V29.0323H50.8226V25.1613C50.8212 24.1351 50.413 23.1513 49.6873 22.4256C48.9617 21.7 47.9778 21.2917 46.9516 21.2904H35.3387C34.3125 21.2917 33.3287 21.7 32.603 22.4256C31.8773 23.1513 31.4691 24.1351 31.4677 25.1613V29.0323H29.5323V25.1613C29.5309 24.1351 29.1226 23.1513 28.397 22.4256C27.6713 21.7 26.6875 21.2917 25.6613 21.2904H14.0484C13.0222 21.2917 12.0383 21.7 11.3127 22.4256C10.587 23.1513 10.1788 24.1351 10.1774 25.1613V29.0323H8.24194V12.5807ZM48.8871 25.1613V29.0323H33.4032V25.1613C33.4039 24.6482 33.608 24.1563 33.9709 23.7935C34.3337 23.4307 34.8256 23.2265 35.3387 23.2258H46.9516C47.4647 23.2265 47.9566 23.4307 48.3195 23.7935C48.6823 24.1563 48.8864 24.6482 48.8871 25.1613ZM27.5968 25.1613V29.0323H12.1129V25.1613C12.1136 24.6482 12.3177 24.1563 12.6805 23.7935C13.0434 23.4307 13.5353 23.2265 14.0484 23.2258H25.6613C26.1744 23.2265 26.6663 23.4307 27.0291 23.7935C27.392 24.1563 27.5961 24.6482 27.5968 25.1613ZM4.37097 32.9033C4.37164 32.3902 4.57577 31.8982 4.9386 31.5354C5.30143 31.1726 5.79334 30.9685 6.30645 30.9678H54.6935C55.2067 30.9685 55.6986 31.1726 56.0614 31.5354C56.4242 31.8982 56.6284 32.3902 56.629 32.9033V40.6452H4.37097V32.9033ZM5.5129 49.3549H4.37097V46.4517H6.09355L5.5129 49.3549ZM56.629 49.3549H55.4871L54.9065 46.4517H56.629V49.3549ZM58.5645 44.5162H2.43548V42.5807H58.5645V44.5162Z" fill="#919191"/>
</svg>
