<svg width="60" height="60" viewBox="0 0 60 60" fill="none" xmlns="http://www.w3.org/2000/svg">
<path d="M58.8456 60H1.15332V28.8462H58.8456V60ZM3.46101 57.6923H56.5379V31.1538H3.46101V57.6923ZM54.2302 11.5385H33.461V7.36154L38.0764 5.05385V0H49.6149V5.05385L54.2302 7.36154V11.5385ZM35.7687 9.23077H51.9226V8.79231L47.3072 6.48462V2.30769H40.3841V6.48462L35.7687 8.79231V9.23077Z" fill="#919191"/>
<path d="M54.2311 54.2307H33.4619V39.2307H54.2311V54.2307ZM35.7696 51.923H51.9235V41.5384H35.7696V51.923Z" fill="#919191"/>
<path d="M44.4232 36.923C45.379 36.923 46.1539 36.1481 46.1539 35.1922C46.1539 34.2363 45.379 33.4614 44.4232 33.4614C43.4673 33.4614 42.6924 34.2363 42.6924 35.1922C42.6924 36.1481 43.4673 36.923 44.4232 36.923Z" fill="#919191"/>
<path d="M50.1927 36.923C51.1486 36.923 51.9235 36.1481 51.9235 35.1922C51.9235 34.2363 51.1486 33.4614 50.1927 33.4614C49.2368 33.4614 48.4619 34.2363 48.4619 35.1922C48.4619 36.1481 49.2368 36.923 50.1927 36.923Z" fill="#919191"/>
<path d="M40.3849 31.1538H38.0772V25.3845H42.6926V27.6922H40.3849V31.1538ZM49.6157 31.1538H47.308V27.6922H45.0003V25.3845H49.6157V31.1538ZM30.0003 55.3845H5.76953V34.6153H30.0003V55.3845ZM8.07722 53.0768H27.6926V36.923H8.07722V53.0768Z" fill="#919191"/>
<path d="M5.76953 43.846H30.0003V46.1537H5.76953V43.846ZM15.0003 39.2307H19.6157V41.5383H15.0003V39.2307ZM15.0003 48.4614H19.6157V50.7691H15.0003V48.4614ZM41.5388 42.6922H46.1541V44.9999H41.5388V42.6922ZM19.6157 3.46143H27.6926V5.76912H19.6157V3.46143Z" fill="#919191"/>
<path d="M6.92285 3.46143H21.9229V5.76912H6.92285V3.46143Z" fill="#919191"/>
<path d="M3.46191 3.46143H9.23114V5.76912H3.46191V3.46143Z" fill="#919191"/>
<path d="M6.92285 1.15381H9.23054V18.4615H6.92285V1.15381ZM19.6152 1.15381H21.9229V12.6923H19.6152V1.15381Z" fill="#919191"/>
<path d="M8.07692 23.0768C7.3923 23.0768 6.72304 22.8738 6.1538 22.4935C5.58455 22.1131 5.14087 21.5725 4.87888 20.94C4.61688 20.3075 4.54833 19.6115 4.6819 18.94C4.81546 18.2685 5.14514 17.6517 5.62925 17.1676C6.11335 16.6835 6.73014 16.3538 7.40161 16.2203C8.07308 16.0867 8.76908 16.1553 9.4016 16.4172C10.0341 16.6792 10.5747 17.1229 10.9551 17.6922C11.3354 18.2614 11.5385 18.9307 11.5385 19.6153C11.5385 20.5333 11.1738 21.4138 10.5246 22.063C9.87544 22.7121 8.99498 23.0768 8.07692 23.0768ZM8.07692 18.4614C7.84871 18.4614 7.62563 18.5291 7.43588 18.6559C7.24613 18.7827 7.09824 18.9629 7.01091 19.1737C6.92358 19.3846 6.90073 19.6166 6.94525 19.8404C6.98977 20.0642 7.09966 20.2698 7.26103 20.4312C7.4224 20.5926 7.62799 20.7024 7.85182 20.747C8.07564 20.7915 8.30764 20.7686 8.51848 20.6813C8.72932 20.594 8.90952 20.4461 9.03631 20.2563C9.1631 20.0666 9.23077 19.8435 9.23077 19.6153C9.23077 19.3093 9.1092 19.0158 8.89282 18.7994C8.67643 18.583 8.38294 18.4614 8.07692 18.4614ZM20.7692 24.2307C19.4 24.2307 18.0615 23.8246 16.923 23.0639C15.7845 22.3032 14.8971 21.222 14.3731 19.9569C13.8491 18.6919 13.712 17.2999 13.9792 15.957C14.2463 14.614 14.9057 13.3805 15.8739 12.4122C16.8421 11.444 18.0757 10.7847 19.4186 10.5175C20.7616 10.2504 22.1536 10.3875 23.4186 10.9115C24.6836 11.4355 25.7648 12.3229 26.5256 13.4613C27.2863 14.5998 27.6923 15.9383 27.6923 17.3076C27.6923 19.1437 26.9629 20.9046 25.6646 22.203C24.3663 23.5013 22.6053 24.2307 20.7692 24.2307ZM20.7692 12.6922C19.8564 12.6922 18.9641 12.9629 18.2051 13.47C17.4461 13.9772 16.8545 14.698 16.5052 15.5414C16.1558 16.3847 16.0644 17.3127 16.2425 18.208C16.4206 19.1033 16.8602 19.9257 17.5057 20.5712C18.1511 21.2166 18.9735 21.6562 19.8688 21.8343C20.7641 22.0124 21.6921 21.921 22.5355 21.5717C23.3788 21.2223 24.0996 20.6308 24.6068 19.8718C25.1139 19.1128 25.3846 18.2204 25.3846 17.3076C25.3846 16.0835 24.8984 14.9096 24.0328 14.044C23.1672 13.1785 21.9933 12.6922 20.7692 12.6922ZM0 28.8461H60V31.1538H0V28.8461Z" fill="#919191"/>
</svg>
