<svg width="60" height="60" viewBox="0 0 60 60" fill="none" xmlns="http://www.w3.org/2000/svg">
<g clip-path="url(#clip0_122_160)">
<path d="M59.9998 38.6338V27.9999H58.7258C54.8213 27.9999 51.2723 29.5199 48.6367 31.9998H30.9998V15.9998H56.4152C58.1059 15.9998 58.6296 13.7123 57.1079 12.9758L30.4351 0.0994085C30.2995 0.0339804 30.1509 0 30.0004 0C29.8498 0 29.7012 0.0339804 29.5656 0.0994085L2.89276 12.9753C1.37015 13.7124 1.89386 15.9999 3.58452 15.9999H28.9999V31.9998H11.363C8.72751 29.5199 5.17861 27.9999 1.27394 27.9999H0V38.6338C0 41.3821 2.06589 43.6456 4.72897 43.9609L1.02984 58.7572C0.96552 59.0144 1.00604 59.2868 1.1425 59.5142C1.27895 59.7416 1.50016 59.9055 1.75745 59.9698C2.01475 60.0341 2.28706 59.9936 2.51447 59.8571C2.74189 59.7207 2.90579 59.4995 2.97011 59.2422L6.55146 44.917L11.0455 59.298C11.127 59.5481 11.3039 59.756 11.5377 59.8767C11.7715 59.9973 12.0434 60.021 12.2945 59.9425C12.5457 59.864 12.7557 59.6898 12.8793 59.4575C13.0028 59.2252 13.0298 58.9536 12.9544 58.7015L8.36012 43.9998H15.9999V42.7258C15.9999 41.0727 15.7276 39.4833 15.2252 37.9998H23.9998V41.9998H26.9998V49.9998C26.9998 54.4184 23.4185 57.9998 18.9998 57.9998H16.9997C16.7345 57.9998 16.4802 58.1051 16.2927 58.2927C16.1051 58.4802 15.9998 58.7345 15.9998 58.9997C15.9998 59.2649 16.1051 59.5193 16.2927 59.7068C16.4802 59.8943 16.7345 59.9997 16.9997 59.9997H42.9997C43.2649 59.9997 43.5192 59.8943 43.7068 59.7068C43.8943 59.5193 43.9996 59.2649 43.9996 58.9997C43.9996 58.7345 43.8943 58.4802 43.7068 58.2927C43.5192 58.1051 43.2649 57.9998 42.9997 57.9998H40.9996C36.581 57.9998 32.9996 54.4185 32.9996 49.9998V41.9998H35.9996V37.9998H44.7742C44.272 39.4832 43.9995 41.0727 43.9995 42.7258V43.9998H50.7187L47.0293 58.7572C46.965 59.0144 47.0055 59.2868 47.1419 59.5142C47.2784 59.7416 47.4996 59.9055 47.7569 59.9698C48.0142 60.0341 48.2865 59.9936 48.5139 59.8571C48.7413 59.7207 48.9052 59.4995 48.9695 59.2422L52.5509 44.917L57.0449 59.298C57.1265 59.5481 57.3033 59.756 57.5371 59.8767C57.7709 59.9973 58.0428 60.021 58.294 59.9425C58.5451 59.864 58.7552 59.6898 58.8787 59.4575C59.0022 59.2252 59.0292 58.9536 58.9539 58.7015L54.3596 43.9998H54.6333C57.5974 43.9998 59.9998 41.5977 59.9998 38.6338ZM30.0004 2.11034L54.629 13.9999H5.37092L30.0004 2.11034ZM7.0045 41.9998H5.36599C3.50694 41.9998 2.00003 40.4931 2.00003 38.6338V30.0202C5.16432 30.1981 8.01911 31.5325 10.1499 33.6068L10.252 33.7084C11.3144 34.7662 12.1866 36.0231 12.828 37.4176L13.0767 37.9583C13.5974 39.2468 13.9025 40.6122 13.9797 41.9998H7.0045ZM33.9998 39.9997H30.9998V49.9996C30.9998 53.271 32.5703 56.1753 34.9985 57.9997H25.0012C27.4294 56.1753 28.9998 53.271 28.9998 49.9996V39.9997H25.9998V37.9997H33.9998V39.9997ZM35.9999 35.9998H14.3774C14.0178 35.3011 13.6028 34.6323 13.1364 33.9997H46.8633C46.397 34.6322 45.982 35.3011 45.6223 35.9998H35.9999ZM46.9232 37.9582L47.1718 37.4176C47.8131 36.0231 48.6855 34.7662 49.7478 33.7084L49.8495 33.6072C51.9803 31.5326 54.8352 30.1981 57.9997 30.0201V38.6337C57.9997 40.493 56.4928 41.9996 54.6338 41.9996H46.0202C46.0974 40.6121 46.4025 39.2467 46.9232 37.9582Z" fill="#919191"/>
</g>
<defs>
<clipPath id="clip0_122_160">
<rect width="59.9998" height="59.9997" fill="white"/>
</clipPath>
</defs>
</svg>
