<svg width="60" height="59" viewBox="0 0 60 59" fill="none" xmlns="http://www.w3.org/2000/svg">
<g clip-path="url(#clip0_122_165)">
<path d="M59.0625 1.875V0H30C29.7514 0 29.5129 0.098772 29.3371 0.274587C29.1613 0.450403 29.0625 0.68886 29.0625 0.9375V8.4375C29.0625 8.68614 29.1613 8.9246 29.3371 9.10041C29.5129 9.27623 29.7514 9.375 30 9.375H30.9375V56.25H0.9375V58.125H59.0625V56.25H47.8125V51.5625H59.0625V49.6875H40.3125V47.8125H59.0625V45.9375H39.375C39.1264 45.9375 38.8879 46.0363 38.7121 46.2121C38.5363 46.3879 38.4375 46.6264 38.4375 46.875V50.625C38.4375 50.8736 38.5363 51.1121 38.7121 51.2879C38.8879 51.4637 39.1264 51.5625 39.375 51.5625H42.1875V56.25H36.5625V9.375H59.0625V7.5H30.9375V1.875H59.0625ZM44.0625 51.5625H45.9375V56.25H44.0625V51.5625ZM34.6875 9.375V56.25H32.8125V9.375H34.6875Z" fill="#919191"/>
<path d="M19.6875 29.0626C19.6875 27.0769 19.2178 25.0894 18.3309 23.3147L17.7141 22.081C17.3953 21.4454 16.3556 21.4454 16.0369 22.081L15.42 23.3147C14.5295 25.1001 14.0649 27.0675 14.0625 29.0626C14.0625 29.2885 14.0897 29.5135 14.1019 29.7394C13.4943 29.2842 12.8021 28.9546 12.0656 28.7701L9.60187 28.1541C9.44482 28.1142 9.28008 28.1157 9.12381 28.1587C8.96755 28.2016 8.82514 28.2844 8.71055 28.399C8.59595 28.5136 8.51313 28.656 8.47019 28.8123C8.42725 28.9686 8.42568 29.1333 8.46562 29.2904L9.08156 31.7551C9.33342 32.761 9.85377 33.6797 10.5871 34.413C11.3203 35.1463 12.239 35.6666 13.245 35.9185L13.8759 36.076L12.7041 36.6619L13.5431 38.3391L15.9375 37.1419V39.3751H9.375C9.12636 39.3751 8.8879 39.4738 8.71209 39.6496C8.53627 39.8255 8.4375 40.0639 8.4375 40.3126V44.0626C8.4375 44.3112 8.53627 44.5497 8.71209 44.7255C8.8879 44.9013 9.12636 45.0001 9.375 45.0001H10.4016L11.2547 53.5313C11.2779 53.7626 11.3862 53.9769 11.5586 54.1328C11.731 54.2887 11.9551 54.3751 12.1875 54.3751H21.5625C21.7949 54.3751 22.019 54.2887 22.1914 54.1328C22.3638 53.9769 22.4721 53.7626 22.4953 53.5313L23.3484 45.0001H24.375C24.6236 45.0001 24.8621 44.9013 25.0379 44.7255C25.2137 44.5497 25.3125 44.3112 25.3125 44.0626V40.3126C25.3125 40.0639 25.2137 39.8255 25.0379 39.6496C24.8621 39.4738 24.6236 39.3751 24.375 39.3751H17.8125V37.1419L20.2059 38.3382L21.045 36.661L19.8731 36.0751L20.5031 35.9176C21.5092 35.6656 22.4289 35.1451 23.1622 34.4117C23.8955 33.6782 24.4158 32.7593 24.6675 31.7532L25.2834 29.2894C25.3234 29.1324 25.3218 28.9676 25.2789 28.8114C25.2359 28.6551 25.1531 28.5127 25.0385 28.3981C24.9239 28.2835 24.7815 28.2007 24.6252 28.1577C24.469 28.1148 24.3042 28.1132 24.1472 28.1532L21.6825 28.7691C20.9464 28.9539 20.2545 29.2835 19.6472 29.7385C19.6603 29.5135 19.6875 29.2885 19.6875 29.0626ZM20.7141 52.5001H13.0369L12.2869 45.0001H21.465L20.7141 52.5001ZM23.4375 43.1251H10.3125V41.2501H23.4375V43.1251ZM16.875 24.6244C17.4891 26.0166 17.8125 27.5401 17.8125 29.0626C17.8125 30.5851 17.4891 32.1085 16.875 33.5007C16.2609 32.1085 15.9375 30.5851 15.9375 29.0626C15.9375 27.5401 16.2609 26.0166 16.875 24.6244ZM11.9128 33.0872C11.4204 32.5934 11.0705 31.9757 10.9003 31.2994L10.6641 30.3516L11.6109 30.5879C12.2888 30.7585 12.9075 31.1082 13.3997 31.6004C13.8919 32.0926 14.2416 32.7122 14.4122 33.3882L14.6484 34.336L13.7016 34.0997C13.0249 33.9298 12.4068 33.5799 11.9128 33.0872ZM22.1381 30.5879L23.0859 30.3516L22.8497 31.2985C22.6791 31.9763 22.3294 32.5951 21.8372 33.0872C21.345 33.5794 20.7253 33.9291 20.0484 34.0997L19.1016 34.336L19.3378 33.3891C19.5084 32.7113 19.8581 32.0926 20.3503 31.6004C20.8425 31.1082 21.4622 30.7585 22.1381 30.5879ZM4.6875 13.1251H16.875C19.4597 13.1251 21.5625 11.0222 21.5625 8.43755C21.5625 5.85287 19.4597 3.75005 16.875 3.75005C16.4644 3.75005 16.0528 3.80724 15.6534 3.9188C15.3005 2.7796 14.591 1.78388 13.6294 1.07836C12.6679 0.372848 11.5051 -0.00515424 10.3125 5.30882e-05C7.21031 5.30882e-05 4.6875 2.52287 4.6875 5.62505C2.61937 5.62505 0.9375 7.30693 0.9375 9.37505C0.9375 11.4432 2.61937 13.1251 4.6875 13.1251ZM4.6875 7.50005C4.94063 7.50005 5.18719 7.55068 5.42156 7.65005C5.58261 7.71748 5.75925 7.73873 5.93169 7.71143C6.10414 7.68414 6.26558 7.60938 6.39793 7.49551C6.53028 7.38165 6.62832 7.23319 6.68107 7.06675C6.73381 6.90032 6.73918 6.72249 6.69656 6.55318C6.61212 6.25086 6.56706 5.93891 6.5625 5.62505C6.5625 3.55693 8.24437 1.87505 10.3125 1.87505C12.2634 1.87505 13.86 3.35068 14.0259 5.30818C14.0386 5.46709 14.0916 5.62014 14.1801 5.75276C14.2686 5.88538 14.3895 5.99318 14.5313 6.06589C14.6732 6.13861 14.8313 6.17384 14.9906 6.16822C15.1499 6.1626 15.3052 6.11633 15.4416 6.0338C15.8944 5.76193 16.3763 5.62505 16.875 5.62505C18.4256 5.62505 19.6875 6.88693 19.6875 8.43755C19.6875 9.98818 18.4256 11.2501 16.875 11.2501H4.6875C3.65344 11.2501 2.8125 10.4091 2.8125 9.37505C2.8125 8.34099 3.65344 7.50005 4.6875 7.50005Z" fill="#919191"/>
</g>
<defs>
<clipPath id="clip0_122_165">
<rect width="58.125" height="58.1251" fill="white" transform="translate(0.9375)"/>
</clipPath>
</defs>
</svg>
