<svg width="60" height="60" viewBox="0 0 60 60" fill="none" xmlns="http://www.w3.org/2000/svg">
<path fill-rule="evenodd" clip-rule="evenodd" d="M57.3005 14.8305C42.2432 0.0567897 17.7483 0.0567897 2.69949 14.8305L0 12.1776C16.5386 -4.0571 43.4508 -4.06127 60 12.1776L57.3005 14.8305ZM52.3599 23.9107L49.6604 26.5616C38.8179 15.9247 21.1778 15.9205 10.3396 26.5616L7.64007 23.9107C19.966 11.8066 40.0255 11.8066 52.3599 23.9107ZM43.784 36.0023L41.0823 38.6553C34.4567 32.1468 23.6715 32.151 17.0437 38.6553L14.3421 36.0023C22.4597 28.0308 35.6727 28.0308 43.784 36.0023ZM30 44.9949C34.2126 44.9949 37.6401 48.3586 37.6401 52.4975C37.6401 56.6343 34.2126 60 30 60C25.7873 60 22.3599 56.6343 22.3599 52.4975C22.3599 48.3586 25.7873 44.9949 30 44.9949ZM30 56.2487C32.1053 56.2487 33.82 54.5648 33.82 52.4975C33.82 50.428 32.1053 48.7462 30 48.7462C27.8926 48.7462 26.18 50.428 26.18 52.4975C26.18 54.5648 27.8926 56.2487 30 56.2487Z" fill="#919191"/>
</svg>
