<svg width="60" height="60" viewBox="0 0 60 60" fill="none" xmlns="http://www.w3.org/2000/svg">
<path fill-rule="evenodd" clip-rule="evenodd" d="M39.2668 58H19.7332C8.85182 58 0 49.2089 0 38.4009V34.2962C0 24.3435 7.51025 16.1052 17.1953 14.8656V18.0642C9.26754 19.2838 3.17511 26.0869 3.17511 34.2962V38.4009C3.17511 47.4692 10.6037 54.8467 19.7332 54.8467H39.2668C48.3963 54.8467 55.8249 47.4692 55.8249 38.4009V34.2962C55.8249 25.8658 49.4021 18.905 41.162 17.9681V14.7895C51.1575 15.7391 59 24.1242 59 34.2962V38.4009C59 49.2089 50.1482 58 39.2668 58ZM40.3723 3.15326C39.7188 3.15326 39.4156 3.3816 39.2468 3.55195C38.7349 4.0648 38.5152 5.06333 38.468 5.96219V26.3116H35.2911V21.7557H23.0663V26.3116H19.8912V6.13979H19.9057C19.9275 4.85131 20.2016 2.74913 21.6103 1.33379C22.4781 0.460303 23.649 0 24.9942 0C25.871 0 26.5827 0.704952 26.5827 1.57663C26.5827 2.44649 25.871 3.15326 24.9942 3.15326C24.3407 3.15326 24.0375 3.3816 23.8687 3.55195C23.2678 4.15541 23.0663 5.43121 23.0772 6.42431L23.0663 10.0759H35.2911V5.86252V5.59975H35.3092C35.4 4.31308 35.7631 2.56429 36.9885 1.33379C37.8562 0.460303 39.0271 0 40.3723 0C41.2492 0 41.9608 0.704952 41.9608 1.57663C41.9608 2.44649 41.2492 3.15326 40.3723 3.15326ZM35.2911 13.2292H23.0663V18.6006H35.2911V13.2292ZM16.2368 39.6296C17.0755 39.6296 17.8888 39.9848 18.4697 40.6063L20.4576 42.7266C20.6318 42.9133 20.7607 42.9151 20.935 42.7266L22.921 40.6063C23.5002 39.9866 24.3153 39.6314 25.154 39.6314C25.9927 39.6314 26.806 39.9866 27.3869 40.6063L29.5871 42.9586C29.7614 43.1453 29.8903 43.1453 30.0664 42.9568L32.1886 40.6915C32.7677 40.0717 33.5828 39.7165 34.4197 39.7147C35.2584 39.7147 36.0717 40.0717 36.6526 40.6915L38.6659 42.8426C38.7548 42.9369 38.8456 42.955 38.9055 42.955C38.9672 42.955 39.058 42.9369 39.1451 42.8426L41.1584 40.6915C41.7393 40.0717 42.5544 39.7147 43.3913 39.7147C44.23 39.7165 45.0451 40.0717 45.6242 40.6915L48.901 44.1909C49.413 44.7382 49.3803 45.5936 48.8302 46.1028C48.5688 46.3438 48.2366 46.4634 47.9044 46.4634C47.5377 46.4634 47.1746 46.3185 46.9059 46.0321L43.631 42.5327C43.542 42.4385 43.4512 42.4186 43.3913 42.4186C43.3314 42.4186 43.2388 42.4385 43.1517 42.5327L41.1384 44.6838C40.5575 45.3036 39.7442 45.6588 38.9055 45.6588C38.0668 45.6588 37.2535 45.3036 36.6726 44.6838L34.6593 42.5327C34.4869 42.3461 34.3562 42.3443 34.1819 42.5327L32.0597 44.798C31.4806 45.4196 30.6655 45.7748 29.8268 45.7748C28.9899 45.7748 28.1766 45.4196 27.5938 44.7998L25.3918 42.4476C25.2175 42.2591 25.0904 42.2591 24.9143 42.4476L22.9301 44.5679C22.3492 45.1876 21.5341 45.5428 20.6972 45.5428C19.8585 45.5428 19.0452 45.1876 18.4643 44.5679L16.4764 42.4476C16.3022 42.2609 16.1714 42.2609 15.9972 42.4476L12.6932 45.9741C12.1812 46.5232 11.3207 46.5522 10.7707 46.043C10.2206 45.5356 10.1898 44.6802 10.6999 44.1329L14.0039 40.6063C14.5848 39.9848 15.3999 39.6296 16.2368 39.6296ZM10.6999 35.128L14.0039 31.5996C14.5848 30.9799 15.3999 30.6247 16.2368 30.6247C17.0755 30.6247 17.8888 30.9799 18.4697 31.5996L20.4576 33.7217C20.6318 33.9102 20.7607 33.9084 20.935 33.7217L22.921 31.5996C23.502 30.9799 24.3171 30.6247 25.154 30.6247C25.9927 30.6247 26.806 30.9799 27.3869 31.5996L29.5871 33.9519C29.7632 34.1404 29.8903 34.1404 30.0664 33.9519L32.1886 31.6866C32.7677 31.0668 33.5828 30.7098 34.4197 30.7098C35.2584 30.7098 36.0735 31.0668 36.6526 31.6866L38.6659 33.8359C38.8402 34.0226 38.9709 34.0226 39.1451 33.8359L41.1584 31.6866C41.7393 31.065 42.5544 30.7098 43.3913 30.7098C44.23 30.7116 45.0451 31.0668 45.6242 31.6866L48.901 35.186C49.413 35.7315 49.3803 36.5887 48.8302 37.0961C48.5688 37.3389 48.2366 37.4585 47.9044 37.4585C47.5377 37.4585 47.1746 37.3135 46.9059 37.0272L43.631 33.5278C43.542 33.4336 43.4512 33.4137 43.3913 33.4137C43.3314 33.4137 43.2388 33.4336 43.1517 33.5278L41.1384 35.6771C40.5575 36.2969 39.7442 36.6521 38.9055 36.6521C38.0668 36.6521 37.2535 36.2969 36.6726 35.6771L34.6593 33.5278C34.485 33.3394 34.3562 33.3394 34.1819 33.5278L32.0597 35.7931C31.4806 36.4129 30.6655 36.7699 29.8268 36.7699C28.9899 36.7699 28.1748 36.4129 27.5938 35.7931L25.3918 33.4408C25.2175 33.2542 25.0922 33.2524 24.9143 33.4408L22.9283 35.5629C22.3474 36.1827 21.5341 36.5379 20.6972 36.5379C19.8585 36.5379 19.0452 36.1827 18.4643 35.5629L16.4764 33.4408C16.3022 33.2542 16.1714 33.2542 15.9972 33.4408L12.6932 36.9692C12.1812 37.5165 11.3207 37.5455 10.7707 37.0381C10.2206 36.5289 10.1898 35.6735 10.6999 35.128Z" fill="#919191"/>
</svg>
