<svg width="31" height="30" viewBox="0 0 31 30" fill="none" xmlns="http://www.w3.org/2000/svg">
<path fill-rule="evenodd" clip-rule="evenodd" d="M19.804 28H11.196C6.4008 28 2.5 24.0592 2.5 19.2142V17.3742C2.5 12.9126 5.8096 9.21956 10.0776 8.6639V10.0977C6.584 10.6445 3.8992 13.6941 3.8992 17.3742V19.2142C3.8992 23.2793 7.1728 26.5865 11.196 26.5865H19.804C23.8272 26.5865 27.1008 23.2793 27.1008 19.2142V17.3742C27.1008 13.595 24.2704 10.4747 20.6392 10.0547V8.62978C25.044 9.05546 28.5 12.8143 28.5 17.3742V19.2142C28.5 24.0592 24.5992 28 19.804 28ZM20.2912 3.41353C20.0032 3.41353 19.8696 3.51589 19.7952 3.59225C19.5696 3.82215 19.4728 4.26977 19.452 4.67271V13.7948H18.052V11.7525H12.6648V13.7948H11.2656V4.75232H11.272C11.2816 4.17472 11.4024 3.23237 12.0232 2.59791C12.4056 2.20634 12.9216 2 13.5144 2C13.9008 2 14.2144 2.31601 14.2144 2.70676C14.2144 3.0967 13.9008 3.41353 13.5144 3.41353C13.2264 3.41353 13.0928 3.51589 13.0184 3.59225C12.7536 3.86277 12.6648 4.43468 12.6696 4.87986L12.6648 6.51679H18.052V4.62803V4.51023H18.06C18.1 3.93345 18.26 3.14951 18.8 2.59791C19.1824 2.20634 19.6984 2 20.2912 2C20.6776 2 20.9912 2.31601 20.9912 2.70676C20.9912 3.0967 20.6776 3.41353 20.2912 3.41353ZM18.052 7.93032H12.6648V10.3382H18.052V7.93032ZM9.6552 19.765C10.0248 19.765 10.3832 19.9242 10.6392 20.2028L11.5152 21.1533C11.592 21.237 11.6488 21.2378 11.7256 21.1533L12.6008 20.2028C12.856 19.925 13.2152 19.7658 13.5848 19.7658C13.9544 19.7658 14.3128 19.925 14.5688 20.2028L15.5384 21.2573C15.6152 21.341 15.672 21.341 15.7496 21.2565L16.6848 20.241C16.94 19.9632 17.2992 19.804 17.668 19.8032C18.0376 19.8032 18.396 19.9632 18.652 20.241L19.5392 21.2053C19.5784 21.2476 19.6184 21.2557 19.6448 21.2557C19.672 21.2557 19.712 21.2476 19.7504 21.2053L20.6376 20.241C20.8936 19.9632 21.2528 19.8032 21.6216 19.8032C21.9912 19.804 22.3504 19.9632 22.6056 20.241L24.0496 21.8097C24.2752 22.0551 24.2608 22.4385 24.0184 22.6668C23.9032 22.7748 23.7568 22.8284 23.6104 22.8284C23.4488 22.8284 23.2888 22.7634 23.1704 22.6351L21.7272 21.0664C21.688 21.0242 21.648 21.0152 21.6216 21.0152C21.5952 21.0152 21.5544 21.0242 21.516 21.0664L20.6288 22.0307C20.3728 22.3085 20.0144 22.4677 19.6448 22.4677C19.2752 22.4677 18.9168 22.3085 18.6608 22.0307L17.7736 21.0664C17.6976 20.9827 17.64 20.9819 17.5632 21.0664L16.628 22.0819C16.3728 22.3605 16.0136 22.5197 15.644 22.5197C15.2752 22.5197 14.9168 22.3605 14.66 22.0827L13.6896 21.0282C13.6128 20.9437 13.5568 20.9437 13.4792 21.0282L12.6048 21.9787C12.3488 22.2565 11.9896 22.4158 11.6208 22.4158C11.2512 22.4158 10.8928 22.2565 10.6368 21.9787L9.7608 21.0282C9.684 20.9445 9.6264 20.9445 9.5496 21.0282L8.0936 22.6091C7.868 22.8552 7.4888 22.8682 7.2464 22.64C7.004 22.4125 6.9904 22.0291 7.2152 21.7837L8.6712 20.2028C8.9272 19.9242 9.2864 19.765 9.6552 19.765ZM7.2152 17.747L8.6712 16.1654C8.9272 15.8875 9.2864 15.7283 9.6552 15.7283C10.0248 15.7283 10.3832 15.8875 10.6392 16.1654L11.5152 17.1166C11.592 17.2011 11.6488 17.2003 11.7256 17.1166L12.6008 16.1654C12.8568 15.8875 13.216 15.7283 13.5848 15.7283C13.9544 15.7283 14.3128 15.8875 14.5688 16.1654L15.5384 17.2198C15.616 17.3043 15.672 17.3043 15.7496 17.2198L16.6848 16.2043C16.94 15.9265 17.2992 15.7665 17.668 15.7665C18.0376 15.7665 18.3968 15.9265 18.652 16.2043L19.5392 17.1678C19.616 17.2515 19.6736 17.2515 19.7504 17.1678L20.6376 16.2043C20.8936 15.9257 21.2528 15.7665 21.6216 15.7665C21.9912 15.7673 22.3504 15.9265 22.6056 16.2043L24.0496 17.773C24.2752 18.0176 24.2608 18.4018 24.0184 18.6293C23.9032 18.7381 23.7568 18.7918 23.6104 18.7918C23.4488 18.7918 23.2888 18.7268 23.1704 18.5984L21.7272 17.0297C21.688 16.9875 21.648 16.9785 21.6216 16.9785C21.5952 16.9785 21.5544 16.9875 21.516 17.0297L20.6288 17.9932C20.3728 18.271 20.0144 18.4302 19.6448 18.4302C19.2752 18.4302 18.9168 18.271 18.6608 17.9932L17.7736 17.0297C17.6968 16.9452 17.64 16.9452 17.5632 17.0297L16.628 18.0452C16.3728 18.323 16.0136 18.4831 15.644 18.4831C15.2752 18.4831 14.916 18.323 14.66 18.0452L13.6896 16.9907C13.6128 16.907 13.5576 16.9062 13.4792 16.9907L12.604 17.942C12.348 18.2198 11.9896 18.3791 11.6208 18.3791C11.2512 18.3791 10.8928 18.2198 10.6368 17.942L9.7608 16.9907C9.684 16.907 9.6264 16.907 9.5496 16.9907L8.0936 18.5724C7.868 18.8177 7.4888 18.8307 7.2464 18.6033C7.004 18.375 6.9904 17.9916 7.2152 17.747Z" fill="#919191"/>
</svg>
