<svg width="31" height="30" viewBox="0 0 31 30" fill="none" xmlns="http://www.w3.org/2000/svg">
<path d="M29.9141 26.3304H28.1076V24.7067H29.1523C29.476 24.7067 29.7383 24.4449 29.7383 24.122V21.213C29.7383 20.89 29.476 20.6282 29.1523 20.6282H27.3777V19.2173H28.5664C28.89 19.2173 29.1523 18.9555 29.1523 18.6325V15.7235C29.1523 15.4005 28.89 15.1387 28.5664 15.1387H27.3777V14.5813C27.3777 14.2584 27.1154 13.9965 26.7918 13.9965C26.4682 13.9965 26.2058 14.2584 26.2058 14.5813V15.1387H18.1411V14.5813C18.1411 14.2584 17.8788 13.9965 17.5552 13.9965C17.2316 13.9965 16.9692 14.2584 16.9692 14.5813V15.1387H16.2935C16.2937 15.1221 16.2942 15.1056 16.2942 15.089C16.2942 13.8691 15.8662 12.7175 15.0805 11.8019C15.3284 11.2541 15.4566 10.66 15.4565 10.059C15.4565 7.72776 13.5561 5.83114 11.2203 5.83114C10.3338 5.83114 9.49379 6.10002 8.79236 6.59147C8.76711 4.33112 6.91719 2.5 4.6465 2.5C2.36012 2.50006 0.5 4.35644 0.5 6.63831V15.5966C0.5 17.68 2.05068 19.4084 4.06051 19.6934V26.3304H1.08594C0.762324 26.3304 0.5 26.5922 0.5 26.9152C0.5 27.2382 0.762324 27.5 1.08594 27.5H29.9141C30.2377 27.5 30.5 27.2382 30.5 26.9152C30.5 26.5922 30.2377 26.3304 29.9141 26.3304ZM26.9357 26.3304H17.4112V24.7067H26.9357V26.3304ZM28.5664 23.5372H15.7805V21.7977H28.5664V23.5372ZM26.2058 20.6282H18.1411V19.2173H26.2058V20.6282ZM16.3664 16.3083H27.9805V18.0477H16.3664V16.3083ZM15.7805 19.2173H16.9692V20.6282H15.1946C14.8709 20.6282 14.6086 20.89 14.6086 21.213V24.122C14.6086 24.4449 14.8709 24.7067 15.1946 24.7067H16.2393V26.3304H11.8061V20.119C13.1745 19.9612 14.3789 19.258 15.1946 18.2333V18.6325C15.1946 18.9555 15.4569 19.2173 15.7805 19.2173ZM11.2202 7.00076C12.9099 7.00076 14.2845 8.37271 14.2845 10.059C14.2845 10.6032 14.1397 11.1373 13.8657 11.6036C13.7997 11.7158 13.7732 11.8468 13.7902 11.9758C13.8072 12.1048 13.8669 12.2245 13.9597 12.3158C14.7094 13.0536 15.1223 14.0385 15.1223 15.089C15.1223 17.0377 13.6808 18.6566 11.8061 18.9395V16.6451L13.1704 15.2835C13.3992 15.0552 13.3992 14.6849 13.1704 14.4565C12.9416 14.2282 12.5706 14.2282 12.3417 14.4565L11.8061 14.9911V13.596C11.8061 13.273 11.5437 13.0112 11.2201 13.0112C10.8965 13.0112 10.6342 13.273 10.6342 13.596V18.94C9.71117 18.8027 8.87428 18.3423 8.25904 17.6257C8.60973 17.0068 8.79364 16.3077 8.79283 15.5966V8.19243C9.37848 7.4349 10.262 7.00076 11.2202 7.00076ZM1.67188 15.5966V6.63831C1.67188 5.00134 3.00623 3.66962 4.64645 3.66962C6.2866 3.66962 7.62102 5.00134 7.62102 6.63831V15.5966C7.62102 17.0334 6.59287 18.2348 5.23238 18.5072V11.1174C5.23238 10.7945 4.97006 10.5327 4.64645 10.5327C4.32283 10.5327 4.06051 10.7945 4.06051 11.1174V18.5072C2.70002 18.2348 1.67188 17.0334 1.67188 15.5966ZM5.23238 19.6934C6.11943 19.5676 6.91689 19.1607 7.53119 18.5661C8.35385 19.4389 9.44387 19.9846 10.6343 20.1198V26.3304H5.23238V19.6934Z" fill="#919191"/>
</svg>
